<?xml version="1.0" encoding="utf-8"?>
<!-- Generator: Adobe Illustrator 28.2.0, SVG Export Plug-In . SVG Version: 6.00 Build 0)  -->
<svg version="1.1" id="Layer_1" xmlns="http://www.w3.org/2000/svg" xmlns:xlink="http://www.w3.org/1999/xlink" x="0px" y="0px"
	 viewBox="0 0 125.7 126.9" style="enable-background:new 0 0 125.7 126.9;" xml:space="preserve">
<style type="text/css">
	.st0{opacity:0.91;}
	.st1{fill:none;stroke:#1FFF26;stroke-width:8;stroke-miterlimit:10;}
	.st2{fill:none;stroke:#FFFFFF;stroke-width:8;stroke-miterlimit:10;}
	.st3{opacity:0.97;}
	.st4{fill:none;stroke:#1FFF26;stroke-width:10;stroke-miterlimit:10;}
	.st5{fill:none;stroke:#1FFF26;stroke-width:10;stroke-linecap:round;stroke-linejoin:round;stroke-miterlimit:10;}
	.st6{fill:none;stroke:#FFFFFF;stroke-width:10;stroke-linejoin:round;stroke-miterlimit:10;}
</style>
<path d="M104.6,124.7H3.7V20.9c0-9.6,8-17.5,17.7-17.5h101v103.8C122.3,116.9,114.3,124.7,104.6,124.7z"/>
<g id="BACKGROUND" class="st0">
	<path class="st1" d="M56,17.9"/>
	<path class="st1" d="M56,27.9"/>
	<path class="st2" d="M79,48.8H45.5c-1.1,0-2-0.9-2-2V26.1c0-1.1,0.9-2,2-2h33.4c1.1,0,2,0.9,2,2v20.8C81,47.9,80,48.8,79,48.8z"/>
</g>
<g class="st3">
	<path class="st4" d="M81.1,82.7"/>
	<path class="st4" d="M81.1,82.7"/>
</g>
<g class="st3">
	<path class="st4" d="M40,82.7"/>
	<path class="st4" d="M40,82.7"/>
</g>
<path class="st4" d="M105.2,14.8"/>
<path class="st4" d="M107.2,21"/>
<g>
	<g>
		<path class="st5" d="M42.9,130.7"/>
		<path class="st6" d="M106.5,21v74.1c0,6.6-5.4,12-12,12H74"/>
	</g>
</g>
<g>
	<g>
		<path class="st5" d="M83.5,130.7"/>
		<path class="st6" d="M19.9,21v74.1c0,6.6,5.4,12,12,12h19.8"/>
	</g>
</g>
<g>
	<g>
		<line class="st6" x1="81.9" y1="67" x2="42.6" y2="67"/>
	</g>
</g>
<g>
	<g>
		<line class="st6" x1="81.9" y1="86" x2="42.5" y2="86"/>
	</g>
</g>
</svg>
